<svg width="20" height="20" viewBox="0 0 20 20" fill="none" xmlns="http://www.w3.org/2000/svg">
<path d="M1 10C0.447717 10 -0.00518906 10.4488 0.0499314 10.9984C0.278876 13.2808 1.28771 15.4269 2.92261 17.0647C4.79411 18.9396 7.33305 19.9952 9.98211 20C12.6312 20.0047 15.1739 18.9582 17.0521 17.09C18.9303 15.2219 19.9905 12.6848 19.9999 10.0358C20.0094 7.38673 18.9674 4.84216 17.1026 2.96063C15.2378 1.0791 12.7027 0.0143617 10.0537 0.000144089C7.40465 -0.0140754 4.85821 1.02339 2.97335 2.88479C1.32677 4.51088 0.302604 6.64967 0.0573321 8.93045C-0.00172142 9.47957 0.447961 9.93164 1.00023 9.93559C1.5525 9.93954 1.99697 9.49326 2.06974 8.94579C2.30233 7.19585 3.10931 5.5614 4.37868 4.30783C5.88657 2.81871 7.92372 1.98874 10.0429 2.00011C12.1622 2.01149 14.1903 2.86328 15.6821 4.3685C17.1739 5.87373 18.0075 7.90939 17.9999 10.0286C17.9924 12.1479 17.1442 14.1775 15.6417 15.672C14.1391 17.1665 12.1049 18.0038 9.98569 18C7.86644 17.9962 5.83528 17.1517 4.33809 15.6518C3.07772 14.3892 2.28246 12.749 2.06239 10.9974C1.99355 10.4495 1.55229 10 1 10Z" fill="url(#paint0_angular_4_73)"/>
<defs>
<radialGradient id="paint0_angular_4_73" cx="0" cy="0" r="1" gradientUnits="userSpaceOnUse" gradientTransform="translate(10 10) rotate(-180) scale(5.83333)">
<stop stop-color="white" stop-opacity="0"/>
<stop offset="1" stop-color="#512DE4"/>
</radialGradient>
</defs>
</svg>
