<svg width="20" height="20" viewBox="0 0 20 20" fill="none" xmlns="http://www.w3.org/2000/svg">
<path d="M10 19C10 19.5523 10.4488 20.0052 10.9984 19.9501C13.2808 19.7211 15.4269 18.7123 17.0647 17.0774C18.9396 15.2059 19.9952 12.667 20 10.0179C20.0047 7.36883 18.9582 4.82613 17.09 2.94793C15.2219 1.06974 12.6848 0.00954229 10.0358 6.35783e-05C7.38673 -0.00941513 4.84216 1.0326 2.96063 2.89738C1.0791 4.76215 0.014362 7.2973 0.000144524 9.94633C-0.0140749 12.5954 1.02339 15.1418 2.88479 17.0267C4.51088 18.6732 6.64967 19.6974 8.93045 19.9427C9.47957 20.0017 9.93164 19.552 9.93559 18.9998C9.93955 18.4475 9.49326 18.003 8.94579 17.9303C7.19585 17.6977 5.5614 16.8907 4.30783 15.6213C2.81871 14.1134 1.98874 12.0763 2.00011 9.95706C2.01149 7.83784 2.86328 5.80972 4.3685 4.3179C5.87373 2.82608 7.90939 1.99247 10.0286 2.00005C12.1479 2.00763 14.1775 2.85579 15.672 4.35835C17.1665 5.8609 18.0038 7.89506 18 10.0143C17.9962 12.1336 17.1517 14.1647 15.6518 15.6619C14.3892 16.9223 12.749 17.7175 10.9974 17.9376C10.4495 18.0065 10 18.4477 10 19Z" fill="url(#paint0_angular_4_71)"/>
<defs>
<radialGradient id="paint0_angular_4_71" cx="0" cy="0" r="1" gradientUnits="userSpaceOnUse" gradientTransform="translate(10 10) rotate(90) scale(5.83333)">
<stop stop-color="white" stop-opacity="0"/>
<stop offset="1" stop-color="#512DE4"/>
</radialGradient>
</defs>
</svg>
